<?xml version="1.0" encoding="iso-8859-1"?>
<!-- Generator: Adobe Illustrator 19.0.1, SVG Export Plug-In . SVG Version: 6.00 Build 0)  -->
<svg version="1.1" xmlns="http://www.w3.org/2000/svg" xmlns:xlink="http://www.w3.org/1999/xlink" x="0px" y="0px" viewBox="0 0 128 128" style="enable-background:new 0 0 128 128;" xml:space="preserve">
	<g id="_x32_0">
		<path id="_x32_0_1_" style="fill:#eee" stroke-width="2" stroke="#eee" d="M83.411,125.74H44.329V99.408L20.871,112.89L0.16,77.84l23.532-13.838L0,50.156
		l20.898-35.048l23.431,13.483V2.26h39.082v26.333l23.358-13.484l20.662,35.048l-23.559,13.846l23.681,13.838l-20.805,35.051
		L83.411,99.408V125.74z M52.557,117.508h22.627V84.662l28.671,16.658l12.068-20.453L87.164,64.002l28.839-16.873l-12.162-20.45
		L75.183,43.338V10.492H52.557v32.848l-28.771-16.66l-12.119,20.45l28.731,16.873L11.55,80.867l12.256,20.453l28.751-16.658V117.508
		z" />
	</g>
	<g id="Layer_1"></g>
</svg>